<svg xmlns="http://www.w3.org/2000/svg" width="80" height="80" viewBox="0 0 80 80" fill="none">
  <rect x="10" y="10" width="25" height="25" rx="5" fill="#E94057"/>
  <rect x="45" y="10" width="25" height="25" rx="5" fill="#8A9AF1"/>
  <rect x="10" y="45" width="25" height="25" rx="5" fill="#F2A639"/>
  <rect x="45" y="45" width="25" height="25" rx="5" fill="#5EC566"/>
  <path d="M17 20C17 17.7909 18.7909 16 21 16H24C26.2091 16 28 17.7909 28 20V25C28 27.2091 26.2091 29 24 29H21C18.7909 29 17 27.2091 17 25V20Z" fill="white"/>
  <path d="M52 20C52 17.7909 53.7909 16 56 16H59C61.2091 16 63 17.7909 63 20V25C63 27.2091 61.2091 29 59 29H56C53.7909 29 52 27.2091 52 25V20Z" fill="white"/>
  <path d="M17 55C17 52.7909 18.7909 51 21 51H24C26.2091 51 28 52.7909 28 55V60C28 62.2091 26.2091 64 24 64H21C18.7909 64 17 62.2091 17 60V55Z" fill="white"/>
  <path d="M52 55C52 52.7909 53.7909 51 56 51H59C61.2091 51 63 52.7909 63 55V60C63 62.2091 61.2091 64 59 64H56C53.7909 64 52 62.2091 52 60V55Z" fill="white"/>
</svg> 