<svg width="70" height="70" viewBox="0 0 70 70" fill="none" xmlns="http://www.w3.org/2000/svg">
<g clip-path="url(#clip0_235_300)">
<path d="M64.8307 0H32.6845C29.7768 0 27.4614 2.31538 27.4614 5.16923V31.7692H64.7768C67.6307 31.7692 69.946 29.4538 69.946 26.6V5.16923C69.9999 2.31538 67.6845 0 64.8307 0Z" fill="#92C83E"/>
<path d="M38.823 18.4155C40.2207 18.4155 41.3538 17.2825 41.3538 15.8848C41.3538 14.4871 40.2207 13.354 38.823 13.354C37.4253 13.354 36.2922 14.4871 36.2922 15.8848C36.2922 17.2825 37.4253 18.4155 38.823 18.4155Z" fill="white"/>
<path d="M48.7307 18.4155C50.1284 18.4155 51.2615 17.2825 51.2615 15.8848C51.2615 14.4871 50.1284 13.354 48.7307 13.354C47.333 13.354 46.2 14.4871 46.2 15.8848C46.2 17.2825 47.333 18.4155 48.7307 18.4155Z" fill="white"/>
<path d="M58.6384 18.4155C60.0361 18.4155 61.1692 17.2825 61.1692 15.8848C61.1692 14.4871 60.0361 13.354 58.6384 13.354C57.2407 13.354 56.1077 14.4871 56.1077 15.8848C56.1077 17.2825 57.2407 18.4155 58.6384 18.4155Z" fill="white"/>
<path d="M5.33085 37.9078C2.47701 37.9078 0.161621 40.2232 0.161621 43.0771V64.7771C0.161621 67.6309 2.47701 69.9463 5.33085 69.9463H37.477C40.3308 69.9463 42.6462 67.6309 42.6462 64.7771V37.854H5.33085V37.9078Z" fill="#FBB03B"/>
<path d="M11.4692 56.4844C12.8669 56.4844 14 55.3513 14 53.9536C14 52.5559 12.8669 51.4229 11.4692 51.4229C10.0715 51.4229 8.93848 52.5559 8.93848 53.9536C8.93848 55.3513 10.0715 56.4844 11.4692 56.4844Z" fill="white"/>
<path d="M21.377 56.4844C22.7747 56.4844 23.9077 55.3513 23.9077 53.9536C23.9077 52.5559 22.7747 51.4229 21.377 51.4229C19.9793 51.4229 18.8462 52.5559 18.8462 53.9536C18.8462 55.3513 19.9793 56.4844 21.377 56.4844Z" fill="white"/>
<path d="M31.2847 56.4844C32.6824 56.4844 33.8154 55.3513 33.8154 53.9536C33.8154 52.5559 32.6824 51.4229 31.2847 51.4229C29.887 51.4229 28.7539 52.5559 28.7539 53.9536C28.7539 55.3513 29.887 56.4844 31.2847 56.4844Z" fill="white"/>
<path d="M21.3769 21.1075V31.8229H10.7154C4.7923 31.8229 0 27.0306 0 21.1075C0 15.1844 4.7923 10.3921 10.7154 10.3921C16.6385 10.3921 21.3769 15.2382 21.3769 21.1075Z" fill="#ED1E79"/>
<path d="M48.623 48.6231V37.9077H59.3384C65.2615 37.9077 70.0538 42.7 70.0538 48.6231C70.0538 54.5462 65.2615 59.3385 59.3384 59.3385C53.4154 59.3385 48.623 54.4923 48.623 48.6231Z" fill="#3FA9F5"/>
</g>
<defs>
<clipPath id="clip0_235_300">
<rect width="70" height="70" fill="white"/>
</clipPath>
</defs>
</svg>
